<mxfile host="app.diagrams.net" agent="Mozilla/5.0 (Windows NT 10.0; Win64; x64) AppleWebKit/537.36 (KHTML, like Gecko) Chrome/131.0.0.0 Safari/537.36 Edg/131.0.0.0" version="25.0.3">
  <diagram name="Page-1" id="uWt0DXkAwFjxTNQVACbC">
    <mxGraphModel dx="970" dy="241" grid="1" gridSize="10" guides="1" tooltips="1" connect="1" arrows="1" fold="1" page="1" pageScale="1" pageWidth="540" pageHeight="280" background="#ffffff" math="0" shadow="0">
      <root>
        <mxCell id="0" />
        <mxCell id="1" parent="0" />
        <mxCell id="NAyeFVG812MS7HLilraX-1" value=":FMU 1" style="shape=umlLifeline;perimeter=lifelinePerimeter;whiteSpace=wrap;html=1;container=1;dropTarget=0;collapsible=0;recursiveResize=0;outlineConnect=0;portConstraint=eastwest;newEdgeStyle={&quot;edgeStyle&quot;:&quot;elbowEdgeStyle&quot;,&quot;elbow&quot;:&quot;vertical&quot;,&quot;curved&quot;:0,&quot;rounded&quot;:0};" parent="1" vertex="1">
          <mxGeometry x="-21" y="40" width="100" height="210" as="geometry" />
        </mxCell>
        <mxCell id="NAyeFVG812MS7HLilraX-2" value=":Bus Simulation" style="shape=umlLifeline;perimeter=lifelinePerimeter;whiteSpace=wrap;html=1;container=1;dropTarget=0;collapsible=0;recursiveResize=0;outlineConnect=0;portConstraint=eastwest;newEdgeStyle={&quot;edgeStyle&quot;:&quot;elbowEdgeStyle&quot;,&quot;elbow&quot;:&quot;vertical&quot;,&quot;curved&quot;:0,&quot;rounded&quot;:0};" parent="1" vertex="1">
          <mxGeometry x="259" y="40" width="100" height="210" as="geometry" />
        </mxCell>
        <mxCell id="NAyeFVG812MS7HLilraX-3" value=":FMU 3" style="shape=umlLifeline;perimeter=lifelinePerimeter;whiteSpace=wrap;html=1;container=1;dropTarget=0;collapsible=0;recursiveResize=0;outlineConnect=0;portConstraint=eastwest;newEdgeStyle={&quot;edgeStyle&quot;:&quot;elbowEdgeStyle&quot;,&quot;elbow&quot;:&quot;vertical&quot;,&quot;curved&quot;:0,&quot;rounded&quot;:0};" parent="1" vertex="1">
          <mxGeometry x="400" y="40" width="100" height="210" as="geometry" />
        </mxCell>
        <mxCell id="NAyeFVG812MS7HLilraX-4" value="Transmit(1)" style="html=1;verticalAlign=bottom;endArrow=block;edgeStyle=elbowEdgeStyle;elbow=vertical;curved=0;rounded=0;" parent="1" source="NAyeFVG812MS7HLilraX-1" edge="1">
          <mxGeometry x="-0.4125" width="80" relative="1" as="geometry">
            <mxPoint x="68.92857142857144" y="119" as="sourcePoint" />
            <mxPoint x="308.5" y="119" as="targetPoint" />
            <Array as="points">
              <mxPoint x="249" y="119" />
              <mxPoint x="269" y="119" />
              <mxPoint x="129" y="119" />
            </Array>
            <mxPoint as="offset" />
          </mxGeometry>
        </mxCell>
        <mxCell id="NAyeFVG812MS7HLilraX-5" value=":FMU 2" style="shape=umlLifeline;perimeter=lifelinePerimeter;whiteSpace=wrap;html=1;container=1;dropTarget=0;collapsible=0;recursiveResize=0;outlineConnect=0;portConstraint=eastwest;newEdgeStyle={&quot;edgeStyle&quot;:&quot;elbowEdgeStyle&quot;,&quot;elbow&quot;:&quot;vertical&quot;,&quot;curved&quot;:0,&quot;rounded&quot;:0};" parent="1" vertex="1">
          <mxGeometry x="119" y="40" width="100" height="210" as="geometry" />
        </mxCell>
        <mxCell id="NAyeFVG812MS7HLilraX-6" value="Transmit(2)" style="html=1;verticalAlign=bottom;endArrow=block;edgeStyle=elbowEdgeStyle;elbow=vertical;curved=0;rounded=0;" parent="1" edge="1">
          <mxGeometry width="80" relative="1" as="geometry">
            <mxPoint x="169.02380952380963" y="154" as="sourcePoint" />
            <mxPoint x="309" y="154" as="targetPoint" />
            <Array as="points">
              <mxPoint x="269" y="154" />
              <mxPoint x="259" y="144" />
              <mxPoint x="279" y="144" />
              <mxPoint x="139" y="144" />
            </Array>
          </mxGeometry>
        </mxCell>
        <mxCell id="NAyeFVG812MS7HLilraX-7" value="Bus Error(Collision)" style="html=1;verticalAlign=bottom;endArrow=block;edgeStyle=elbowEdgeStyle;elbow=vertical;curved=0;rounded=0;" parent="1" edge="1">
          <mxGeometry x="0.4921" width="80" relative="1" as="geometry">
            <mxPoint x="308.5" y="189" as="sourcePoint" />
            <mxPoint x="29.023809523809632" y="189" as="targetPoint" />
            <Array as="points">
              <mxPoint x="159" y="189" />
              <mxPoint x="279" y="199" />
              <mxPoint x="289" y="249" />
              <mxPoint x="269" y="259" />
              <mxPoint x="149" y="219" />
              <mxPoint x="259" y="229" />
              <mxPoint x="279" y="229" />
              <mxPoint x="249" y="209" />
            </Array>
            <mxPoint as="offset" />
          </mxGeometry>
        </mxCell>
        <mxCell id="NAyeFVG812MS7HLilraX-8" value="Bus Error(Collision)" style="html=1;verticalAlign=bottom;endArrow=block;edgeStyle=elbowEdgeStyle;elbow=vertical;curved=0;rounded=0;" parent="1" edge="1">
          <mxGeometry x="-0.0178" width="80" relative="1" as="geometry">
            <mxPoint x="308.5" y="224" as="sourcePoint" />
            <mxPoint x="169.02380952380963" y="224" as="targetPoint" />
            <Array as="points">
              <mxPoint x="189" y="224" />
              <mxPoint x="259" y="214" />
              <mxPoint x="259" y="224" />
              <mxPoint x="279" y="234" />
              <mxPoint x="289" y="284" />
              <mxPoint x="269" y="294" />
              <mxPoint x="149" y="254" />
              <mxPoint x="259" y="264" />
              <mxPoint x="279" y="264" />
              <mxPoint x="249" y="244" />
            </Array>
            <mxPoint as="offset" />
          </mxGeometry>
        </mxCell>
        <mxCell id="NAyeFVG812MS7HLilraX-9" value="Bus Error(Collision)" style="html=1;verticalAlign=bottom;endArrow=block;edgeStyle=elbowEdgeStyle;elbow=vertical;curved=0;rounded=0;" parent="1" edge="1">
          <mxGeometry x="0.6687" width="80" relative="1" as="geometry">
            <mxPoint x="330" y="189" as="sourcePoint" />
            <mxPoint x="449.5" y="189" as="targetPoint" />
            <Array as="points">
              <mxPoint x="180" y="189" />
              <mxPoint x="300" y="199" />
              <mxPoint x="310" y="249" />
              <mxPoint x="290" y="259" />
              <mxPoint x="170" y="219" />
              <mxPoint x="280" y="229" />
              <mxPoint x="300" y="229" />
              <mxPoint x="270" y="209" />
            </Array>
            <mxPoint as="offset" />
          </mxGeometry>
        </mxCell>
      </root>
    </mxGraphModel>
  </diagram>
</mxfile>
